<svg width="200" height="60" xmlns="http://www.w3.org/2000/svg" class="el-tooltip" preserveAspectRatio="xMidYMid meet">
 <g>
  <title>Layer 1</title>
  <g id="svg_5" class="icon-text-wrapper icon-svg-group iconsvg" fill="#623aa2">
   <g stroke="null" id="svg_6" class="iconsvg-imagesvg">
    <rect stroke="null" id="svg_7" height="48.88346" width="43.97165" y="5.38464" x="5.01296" stroke-width="2" fill-opacity="0" fill="#623aa2"/>
    <g transform="matrix(0.814724326133728,0,0,0.814724326133728,1.4844248273271887,1.2418765274424004) " stroke="null" id="svg_2">
     <svg stroke="null" id="svg_8" class="image-svg-svg" height="60" width="53.9712" y="5.08486" x="4.33095">
      <g stroke="null" id="svg_4">
       <svg stroke="null" id="svg_9" viewBox="0 0 449.76 500">
        <defs stroke="null">
         <linearGradient stroke="null" y2="0" x2="0.5" y1="0.99997" x1="0.5" id="svg_3">
          <stop stroke="null" stop-color="#623aa2" offset="0"/>
          <stop stroke="null" stop-color="#f97794" offset="1"/>
         </linearGradient>
        </defs>
        <g stroke="null" id="svg_10">
         <path stroke="null" id="svg_11" fill="url(#svg_3)" d="m45.83,437.63l-36.83,21.23l-2.4,1.37l-2.49,1.43l-0.83,-2.75l-0.79,-2.63a58.92,58.92 0 0 1 -2.5,-17l0,-379a60.8,60.8 0 0 1 30.35,-52.67a56.13,56.13 0 0 1 12,-5.25l2.81,-0.86l2.91,-0.9l0,435.75l-1.14,0.66l-1.09,0.62zm387.09,-153.37l-36.93,-21.27l-1.09,-0.63l-1.14,-0.65l-1.14,0.66l-1.09,0.63l-264.93,153l-59.6,34.32l-46.33,26.76l-2.57,1.49l-2.69,1.56l2.3,2.1l2.2,2a58.63,58.63 0 0 0 10.5,7.67a60.85,60.85 0 0 0 60.72,0l328.26,-189.56a59.57,59.57 0 0 0 13.39,-10.53l1.91,-2l2,-2.1l-2.51,-1.45l-1.26,-2zm-12.4,-87.74l-329.4,-188.92a58.65,58.65 0 0 0 -16,-6.31l-2.67,-0.63l-2.8,-0.66l0,50.69l1.14,0.66l1.09,0.63l323.48,186.76l0.18,0.11a7.4,7.4 0 0 1 0.89,0.59l0.34,0.26l0.12,0.09l0.23,0.15l44.62,25.73l2.54,1.46l2.66,1.53l0.7,-3l0.67,-2.85a57.6,57.6 0 0 0 1.46,-13.06a60.89,60.89 0 0 0 -30.38,-52.62l1.13,-0.61z"/>
        </g>
       </svg>
      </g>
     </svg>
    </g>
    <!---->
   </g>
   <g stroke="null" id="svg_12">
    <g stroke="null" id="svg_13" class="tp-name iconsvg-namesvg">
     <g stroke="null" id="svg_14">
      <path stroke="null" id="svg_15" d="m72.11157,43.77227l-7.10613,0l0,-3.8726l7.10613,0l0,3.8726zm0,-23.99868l-7.10613,0l0,-3.81537l7.10613,0l0,3.81537zm1.00153,13.66856l0,0l0,-3.88214l0,0q1.116,-0.83938 1.55476,-1.71692l0,0l0,0q0.31477,-0.64861 0.62954,-2.03168l0,0l4.08245,0l-0.40061,1.86953l7.50674,0l0,3.85352l-4.65475,0l0,3.5006l4.65475,0l0,3.93937l-4.13014,0l0,0q1.03015,3.43383 4.13014,5.04583l0,0l0,3.65322l0,0q-2.27968,-0.57231 -3.8726,-1.85045l0,0l0,0q-1.17323,-0.93477 -2.76614,-3.57691l0,0l0,0q-1.46892,2.50861 -3.0046,3.7486l0,0l0,0q-1.45938,1.17323 -3.60553,1.78369l0,0l0,-3.60553l0,0q1.72646,-1.0683 2.60399,-2.15568l0,0l0,0q0.9443,-1.13507 1.61199,-3.04276l0,0l-4.33998,0l0,-3.93937l4.9886,0l0,-3.5006l-1.29723,0l0,0q-1.46892,1.36399 -3.69137,1.90769zm0.50554,-13.66856l0,-7.89782l3.93937,0l0,1.90769l8.92797,0l0,3.8726l-8.92797,0l0,2.11753l0,0q0,0.73446 0.27661,1.01107l0,0l0,0q0.31477,0.28615 1.5643,0.28615l0,0l7.08705,0l0,3.88214l-9.28089,0l0,0q-1.50707,0 -2.5563,-1.04923l0,0l0,0q-0.59138,-0.58184 -0.75354,-1.08738l0,0l0,0q-0.27661,-0.92523 -0.27661,-3.04276l0,0zm13.62087,27.88082l0,0l0,-3.71045l0,0q0.59138,-0.15261 0.71538,-0.31477l0,0l0,0q0.20985,-0.27661 0.20985,-1.43076l0,0l0,-12.65749l3.69137,0l0,12.82918l0,0q0,1.21138 0.35292,1.57384l0,0l0,0q0.35292,0.35292 1.59292,0.35292l0,0l0,-17.50301l-5.95198,0l0,-3.47199l4.00614,0l0,0q-1.36399,-1.90769 -1.83138,-3.21445l0,0l0,0q-0.28615,-0.75354 -0.54369,-1.98399l0,0l4.07291,0l0,0q0.54369,1.82184 1.21138,2.71845l0,0l0,0q0.52461,0.75354 1.82184,1.90769l0,0l1.95538,-4.73106l0,0q0.45784,-1.09692 0.45784,-1.43076l0,0l0,0q0,-0.77261 -1.32584,-0.77261l0,0l-9.82458,0l0,-3.81537l10.69258,0l0,0q2.24153,0 3.34799,1.13507l0,0l0,0q1.17323,1.1923 1.17323,2.76614l0,0l0,0q0,0.70584 -0.33384,1.52615l0,0l-2.4323,5.89475l0,0q2.01261,0.10492 2.5563,0.66769l0,0l0,0q0.66769,0.66769 0.66769,2.47045l0,0l0,3.08091l-3.34799,0l0,-1.29723l0,-0.75354l0,0q-0.03815,-0.69631 -1.08738,-0.69631l0,0l-1.41169,0l0,5.66583l5.84706,0l0,3.8726l-5.84706,0l0,7.96459l5.84706,0l0,3.2526l-10.68304,0l0,0q-1.44984,0 -2.1843,-0.34338l0,0l0,0q-0.45784,-0.20031 -1.17323,-0.87754l0,0l-0.70584,0.64861l0,0q-0.65815,0.57231 -1.53569,0.67723zm24.94298,-24.20853l-4.35906,0l0,-3.88214l17.43624,0l0,-2.82337l-16.64455,0l0,-3.88214l32.43065,0l0,0q0.58184,0 0.77261,-0.16215l0,0l0,0q0.19077,-0.19077 0.29569,-0.76307l0,0l3.92029,0l0,0q-0.69631,4.80737 -5.17937,4.80737l0,0l-11.71319,0l0,2.82337l17.36947,0l0,3.88214l-3.64368,0l0,0q1.12553,2.03168 3.66276,2.87107l0,0l-0.01908,4.02522l0,0q-3.11907,-0.88707 -5.04583,-2.45138l0,0l0,0q-2.0603,-1.67876 -3.08091,-4.44491l0,0l-9.24273,0l0,6.61967l12.4858,0l0,0q4.06337,0 4.06337,3.69137l0,0l0,9.61473l0,0q0,2.16522 -1.03969,3.14768l0,0l0,0q-0.69631,0.64861 -1.51661,0.8203l0,0l0,0q-0.60092,0.10492 -1.61199,0.10492l0,0l-28.46266,0l0,0q-1.75507,0 -2.34645,-0.19077l0,0l0,0q-0.98246,-0.33384 -1.54523,-1.24l0,0l0,0q-0.57231,-0.91569 -0.57231,-1.82184l0,0l0,-10.29196l0,0q0,-1.85999 1.01107,-2.85199l0,0l0,0q0.73446,-0.70584 1.61199,-0.87754l0,0l0,0q0.61046,-0.10492 1.57384,-0.10492l0,0l12.46672,0l0,-6.61967l-8.63228,0l0,0q-1.1923,2.64214 -2.93784,4.20645l0,0l0,0q-1.94584,1.74553 -5.28429,2.64214l0,0l0,-3.97752l0,0q1.43076,-0.61046 2.14615,-1.15415l0,0l0,0q0.75354,-0.56277 1.63107,-1.71692l0,0zm29.65497,18.94331l0,-1.84092l-29.3402,0l0,2.05076l0,0q0,0.96338 1.21138,0.96338l0,0l26.95559,0l0,0q0.64861,0 0.9443,-0.29569l0,0l0,0q0.22892,-0.20985 0.22892,-0.87754l0,0zm-29.3402,-7.50674l0,1.78369l29.3402,0l0,-1.57384l0,0q0,-1.1923 -1.34492,-1.1923l0,0l-26.57406,0l0,0q-1.42123,0 -1.42123,0.98246l0,0zm42.694,12.68611l-3.88214,0l0,-28.75835l3.88214,0l0,28.75835zm5.13167,-31.96327l-9.01381,0l0,-3.6246l9.01381,0l0,3.6246zm-3.04276,18.08486l0,0l0,-3.45291l0,0q4.80737,-0.29569 8.4892,-1.32584l0,0l0,0q-2.57538,-1.75507 -4.50214,-3.39568l0,0l5.63721,0l0,0q1.44984,1.09692 3.06183,1.85045l0,0l0,0q0.50554,-0.25754 2.01261,-0.992l0,0l0,0q3.06183,-1.48799 5.00767,-3.57691l0,0l-14.58425,0l0,0q-1.25907,2.11753 -2.74707,3.24306l0,0l0,0q-0.67723,0.50554 -1.90769,1.13507l0,0l0,-4.04429l0,0q1.94584,-1.80276 2.9283,-5.38921l0,0l3.69137,0l-0.22892,0.77261l-0.20985,0.76307l13.68764,0l0,0q4.16829,0 4.16829,2.29876l0,0l0,0q0,1.80276 -2.53722,4.30183l0,0l0,0q-1.40215,1.38307 -4.37814,3.18583l0,0l0,0q3.5006,0.75354 7.87874,0.87754l0,0l0,3.43383l0,0q-4.33998,-0.14308 -6.87721,-0.62954l0,0l0,0q-3.01414,-0.58184 -5.69444,-1.5643l0,0l0,0q-3.18583,1.08738 -5.9329,1.66922l0,0l0,0q-2.72799,0.57231 -6.96305,0.83938zm25.25775,-17.83686l-18.59039,0l0,-3.8726l19.76362,0l0,0q2.22245,0 3.77722,1.52615l0,0l0,0q1.50707,1.44984 1.50707,3.93937l0,0l0,23.96053l0,0q0,2.57538 -0.85846,3.83445l0,0l0,0q-1.59292,2.32738 -4.51168,2.32738l0,0l-1.5643,0l0,-3.88214l0.89661,0l0,0q0.85846,0 1.59292,-0.79169l0,0l0,0q0.56277,-0.61046 0.56277,-1.99353l0,0l0,-22.44392l0,0q0,-2.60399 -2.57538,-2.60399l0,0zm-24.70452,26.34513l0,0l0,-4.02522l0,0q0,-1.82184 0.91569,-2.66122l0,0l0,0q1.01107,-0.89661 2.47999,-0.89661l0,0l17.3504,0l0,0q1.42123,0 2.3083,0.92523l0,0l0,0q0.93477,0.96338 0.93477,2.34645l0,0l0,4.14922l0,0q0,2.03168 -1.1923,2.9283l0,0l0,0q-0.89661,0.67723 -2.05076,0.67723l0,0l-17.50301,0l0,0q-1.25907,0 -2.26061,-0.92523l0,0l0,0q-0.98246,-0.89661 -0.98246,-2.51814zm20.53623,-1.40215l0,0l0,-1.57384l0,0q0,-1.12553 -1.116,-1.12553l0,0l-14.87994,0l0,0q-0.41969,0 -0.77261,0.33384l0,0l0,0q-0.31477,0.29569 -0.31477,0.64861l0,0l0,1.82184l0,0q0,0.69631 0.27661,0.96338l0,0l0,0q0.33384,0.33384 0.56277,0.33384l0,0l15.21379,0l0,0q1.03015,0 1.03015,-1.40215z"/>
     </g>
     <!---->
     <!---->
     <!---->
     <!---->
     <!---->
     <!---->
     <!---->
    </g>
   </g>
  </g>
 </g>
</svg>